<svg width="16" height="16" viewBox="0 0 16 16" fill="none" xmlns="http://www.w3.org/2000/svg">
<path d="M8 0C3.55556 0 0 3.55556 0 8C0 12.4444 3.55556 16 8 16C12.4444 16 16 12.4444 16 8C16 3.55556 12.4444 0 8 0ZM8 6.22222C8.97778 6.22222 9.77778 7.02222 9.77778 8C9.77778 8.97778 8.97778 9.77778 8 9.77778C7.02222 9.77778 6.22222 8.97778 6.22222 8C6.22222 7.02222 7.02222 6.22222 8 6.22222ZM10.4889 4.44444C10.4889 3.82222 11.0222 3.37778 11.5556 3.37778C12.0889 3.37778 12.6222 3.91111 12.6222 4.44444C12.6222 4.97778 12.1778 5.51111 11.5556 5.51111C10.9333 5.51111 10.4889 5.06667 10.4889 4.44444ZM8 14.2222C4.53333 14.2222 1.77778 11.4667 1.77778 8H4.44444C4.44444 9.95556 6.04444 11.5556 8 11.5556C9.95556 11.5556 11.5556 9.95556 11.5556 8H14.2222C14.2222 11.4667 11.4667 14.2222 8 14.2222Z" fill="#F94866"/>
</svg>
