<svg width="18" height="16" viewBox="0 0 18 16" fill="none" xmlns="http://www.w3.org/2000/svg">
<path d="M4.48561 5.6665C2.376 6.19538 1 7.10148 1 8.1359C1 9.77465 4.52401 11.1108 8.88002 11.1108C9.47202 11.1108 9.88802 11.0805 10.44 11.0354" stroke="white" stroke-width="2" stroke-linecap="round" stroke-linejoin="round"/>
<path d="M7.2696 11.0333C6.9392 10.5698 6.6248 10.1521 6.3256 9.63335C4.12479 5.82231 3.53519 2.0346 5.02159 1.17673C5.9416 0.634624 7.4592 1.3735 9.00081 2.9298" stroke="white" stroke-width="2" stroke-linecap="round" stroke-linejoin="round"/>
<path d="M4.54318 10.6343C3.98158 12.7249 4.09518 14.3022 4.99118 14.8303C6.41758 15.6703 9.30079 13.3075 11.4256 9.53842C11.7136 9.01731 11.972 8.50477 12.2 8" stroke="white" stroke-width="2" stroke-linecap="round" stroke-linejoin="round"/>
<path d="M9 13.0711C10.5424 14.6266 12.0536 15.3655 12.9824 14.8234C14.4624 13.9663 13.8792 10.1786 11.676 6.36677C11.3688 5.84022 11.0544 5.43034 10.732 4.9668" stroke="white" stroke-width="2" stroke-linecap="round" stroke-linejoin="round"/>
<path d="M13.5278 10.333C15.6174 9.79869 16.9998 8.89415 16.9998 7.86284C16.9998 6.22176 13.4734 4.88867 9.12382 4.88867C8.52622 4.88867 8.11102 4.91123 7.55981 4.95634" stroke="white" stroke-width="2" stroke-linecap="round" stroke-linejoin="round"/>
<path d="M5.7998 8.00017C6.02781 7.48685 6.28541 6.98286 6.57421 6.46176C8.69181 2.69427 11.5766 0.325202 13.011 1.17219C13.899 1.70029 14.0206 3.27681 13.459 5.36667M9.20781 8.01184H9.19981C9.19181 8.11295 9.10381 8.1985 8.99181 8.1985C8.93825 8.19593 8.88771 8.17356 8.85054 8.13598C8.81336 8.09839 8.79236 8.04842 8.79181 7.99628C8.79181 7.8874 8.87981 7.80184 8.98381 7.80184H8.97581C9.07981 7.79407 9.17581 7.8874 9.17581 7.98851" stroke="white" stroke-width="2" stroke-linecap="round" stroke-linejoin="round"/>
</svg>
