<svg width="34" height="34" viewBox="0 0 34 34" fill="none" xmlns="http://www.w3.org/2000/svg">
<path d="M17 0C7.60962 0 0 7.60962 0 17C0 26.3904 7.60962 34 17 34C26.3904 34 34 26.3904 34 17C34 7.60962 26.3904 0 17 0ZM25.3534 11.6535L22.5633 24.7945C22.3699 25.7316 21.8067 25.9505 21.0226 25.5191L16.7726 22.3784L14.7348 24.3631C14.4968 24.5948 14.3097 24.7881 13.8847 24.7881C13.3344 24.7881 13.4257 24.582 13.2409 24.0571L11.7938 19.3035L7.5905 17.9945C6.681 17.7161 6.67462 17.0914 7.79662 16.6473L24.1719 10.3254C24.9156 9.9875 25.6402 10.5039 25.3534 11.6535Z" fill="white"/>
</svg>
