<svg width="16" height="13" viewBox="0 0 16 13" fill="none" xmlns="http://www.w3.org/2000/svg">
<path fill-rule="evenodd" clip-rule="evenodd" d="M3.32333 0C2.41 0 1.73467 0.815262 1.76533 1.69852C1.794 2.54846 1.75667 3.64794 1.48533 4.5448C1.212 5.44369 0.752 6.01349 0 6.08693V6.91307C0.752 6.98583 1.21267 7.55563 1.48467 8.4552C1.75667 9.35206 1.794 10.4515 1.76467 11.3008C1.73467 12.1847 2.41 13 3.32333 13H12.678C13.5913 13 14.2667 12.1847 14.236 11.3008C14.2073 10.4515 14.2447 9.35206 14.516 8.4552C14.7887 7.55563 15.248 6.98651 16 6.91307V6.08693C15.248 6.01349 14.7887 5.44369 14.516 4.5448C14.2447 3.64726 14.2073 2.54778 14.236 1.69852C14.2667 0.814583 13.5907 0 12.678 0H3.32333ZM10.8467 8.00235C10.8467 9.21947 9.95667 9.95722 8.48 9.95722H5.966C5.89404 9.95722 5.82502 9.92806 5.77414 9.87616C5.72325 9.82426 5.69467 9.75387 5.69467 9.68047V3.31885C5.69484 3.24557 5.72351 3.17535 5.77437 3.1236C5.82524 3.07185 5.89415 3.04278 5.966 3.04278H8.466C9.69733 3.04278 10.506 3.72274 10.506 4.76782C10.506 5.50081 9.962 6.15696 9.26933 6.27256V6.31063C10.2127 6.41603 10.8467 7.08238 10.8467 8.00235ZM8.20667 3.91924H6.77333V5.98494H7.98067C8.914 5.98494 9.42867 5.60144 9.42867 4.91605C9.42867 4.27418 8.986 3.91924 8.20667 3.91924ZM6.77333 6.80428V9.08008H8.26C9.23133 9.08008 9.74667 8.68231 9.74667 7.93504C9.74667 7.18709 9.21733 6.80428 8.19733 6.80428H6.77333Z" fill="white"/>
</svg>
