<svg width="13" height="14" viewBox="0 0 13 14" fill="none" xmlns="http://www.w3.org/2000/svg">
<path d="M7.8 3.9375V0H3.9C3.55522 0 3.22456 0.138281 2.98076 0.384422C2.73696 0.630564 2.6 0.964403 2.6 1.3125V7.94938C2.87733 8.04825 3.11047 8.239 3.2656 8.48575C3.57191 8.18864 3.95797 7.98899 4.37577 7.91162C4.79357 7.83425 5.22468 7.88257 5.61549 8.05058C6.00631 8.21859 6.33959 8.49888 6.57389 8.85658C6.8082 9.21429 6.93319 9.63365 6.93333 10.0625C6.93333 10.451 6.76607 10.8001 6.5 11.0408C6.77647 11.4126 6.93333 11.8711 6.93333 12.3533V12.6875C6.93333 13.1801 6.77213 13.6342 6.5 14H11.7C12.0448 14 12.3754 13.8617 12.6192 13.6156C12.863 13.3694 13 13.0356 13 12.6875V5.25H9.1C8.75522 5.25 8.42456 5.11172 8.18076 4.86558C7.93696 4.61944 7.8 4.2856 7.8 3.9375ZM8.66667 3.9375V0.21875L12.7833 4.375H9.1C8.98507 4.375 8.87485 4.32891 8.79359 4.24686C8.71232 4.16481 8.66667 4.05353 8.66667 3.9375ZM2.16667 8.75C2.05174 8.75 1.94152 8.79609 1.86025 8.87814C1.77899 8.96019 1.73333 9.07147 1.73333 9.1875V12.6875C1.73333 12.8035 1.68768 12.9148 1.60641 12.9969C1.52515 13.0789 1.41493 13.125 1.3 13.125C1.18507 13.125 1.07485 13.0789 0.993587 12.9969C0.912321 12.9148 0.866667 12.8035 0.866667 12.6875V12.25C0.866667 12.134 0.821012 12.0227 0.739746 11.9406C0.658481 11.8586 0.54826 11.8125 0.433333 11.8125C0.318406 11.8125 0.208186 11.8586 0.12692 11.9406C0.0456546 12.0227 0 12.134 0 12.25V12.6875C0 13.0356 0.136964 13.3694 0.380761 13.6156C0.624559 13.8617 0.955219 14 1.3 14C1.64478 14 1.97544 13.8617 2.21924 13.6156C2.46304 13.3694 2.6 13.0356 2.6 12.6875V9.1875C2.6 9.07147 2.55435 8.96019 2.47308 8.87814C2.39181 8.79609 2.28159 8.75 2.16667 8.75ZM3.46667 10.0625C3.46667 9.7144 3.60363 9.38056 3.84743 9.13442C4.09123 8.88828 4.42189 8.75 4.76667 8.75C5.11145 8.75 5.44211 8.88828 5.68591 9.13442C5.9297 9.38056 6.06667 9.7144 6.06667 10.0625C6.06667 10.1785 6.02101 10.2898 5.93975 10.3719C5.85848 10.4539 5.74826 10.5 5.63333 10.5C5.51841 10.5 5.40819 10.4539 5.32692 10.3719C5.24565 10.2898 5.2 10.1785 5.2 10.0625C5.2 9.94647 5.15435 9.83519 5.07308 9.75314C4.99181 9.67109 4.88159 9.625 4.76667 9.625C4.65174 9.625 4.54152 9.67109 4.46025 9.75314C4.37899 9.83519 4.33333 9.94647 4.33333 10.0625V10.3967C4.33334 10.4779 4.35571 10.5575 4.39796 10.6266C4.4402 10.6957 4.50065 10.7515 4.57253 10.7879L5.3482 11.179C5.56416 11.2881 5.74576 11.4557 5.87266 11.6631C5.99956 11.8705 6.06674 12.1095 6.06667 12.3533V12.6875C6.06667 13.0356 5.9297 13.3694 5.68591 13.6156C5.44211 13.8617 5.11145 14 4.76667 14C4.42189 14 4.09123 13.8617 3.84743 13.6156C3.60363 13.3694 3.46667 13.0356 3.46667 12.6875C3.46667 12.5715 3.51232 12.4602 3.59359 12.3781C3.67485 12.2961 3.78507 12.25 3.9 12.25C4.01493 12.25 4.12515 12.2961 4.20641 12.3781C4.28768 12.4602 4.33333 12.5715 4.33333 12.6875C4.33333 12.8035 4.37899 12.9148 4.46025 12.9969C4.54152 13.0789 4.65174 13.125 4.76667 13.125C4.88159 13.125 4.99181 13.0789 5.07308 12.9969C5.15435 12.9148 5.2 12.8035 5.2 12.6875V12.3533C5.2 12.2721 5.17762 12.1925 5.13538 12.1234C5.09313 12.0543 5.03269 11.9985 4.9608 11.9621L4.18513 11.571C3.96918 11.4619 3.78757 11.2943 3.66067 11.0869C3.53377 10.8795 3.46659 10.6405 3.46667 10.3967V10.0625Z" fill="white"/>
</svg>
