<svg width="34" height="34" viewBox="0 0 34 34" fill="none" xmlns="http://www.w3.org/2000/svg">
<path d="M17.0006 4.35561e-09C12.9638 -9.2481e-05 9.05866 1.47267 5.98407 4.15473C2.90948 6.83679 0.866074 10.5531 0.219511 14.6386C-0.427052 18.7242 0.365428 22.9123 2.45514 26.4535C4.54485 29.9948 7.7954 32.658 11.6251 33.9667C12.4751 34.1201 12.793 33.5971 12.793 33.1387C12.793 32.7256 12.7726 31.3521 12.7726 29.8932C8.50049 30.6985 7.39548 28.8247 7.05548 27.8451C6.67832 26.8912 6.08024 26.0459 5.31296 25.3822C4.71796 25.0562 3.86795 24.2492 5.29086 24.2283C5.83466 24.2886 6.35626 24.4825 6.81141 24.7935C7.26657 25.1046 7.64187 25.5235 7.90549 26.0149C8.13793 26.4431 8.45051 26.8201 8.8253 27.1243C9.2001 27.4284 9.62975 27.6537 10.0896 27.7873C10.5495 27.9209 11.0306 27.9601 11.5053 27.9027C11.98 27.8454 12.439 27.6925 12.8559 27.4529C12.9296 26.5664 13.315 25.7375 13.9405 25.1207C10.158 24.685 6.20547 23.1825 6.20547 16.5153C6.18139 14.7827 6.80486 13.1063 7.94799 11.83C7.42831 10.3244 7.48912 8.67214 8.11799 7.21097C8.11799 7.21097 9.5409 6.75429 12.793 8.99758C15.5747 8.21313 18.5114 8.21313 21.2931 8.99758C24.5435 6.73163 25.9681 7.21097 25.9681 7.21097C26.5972 8.6721 26.658 10.3244 26.1381 11.83C27.2847 13.1041 27.9088 14.782 27.8807 16.5153C27.8807 23.2034 23.906 24.685 20.1235 25.1207C20.5292 25.5423 20.8417 26.0485 21.0397 26.6049C21.2377 27.1613 21.3166 27.7549 21.271 28.3454C21.271 30.6775 21.2506 32.5513 21.2506 33.1387C21.2506 33.5971 21.5685 34.141 22.4185 33.9667C26.2412 32.6471 29.482 29.9775 31.5626 26.4345C33.6432 22.8916 34.428 18.7058 33.777 14.6244C33.126 10.5431 31.0815 6.83173 28.0085 4.15294C24.9355 1.47414 21.0341 0.00224863 17.0006 4.35561e-09Z" fill="white"/>
</svg>
