<svg width="12" height="18" viewBox="0 0 12 18" fill="none" xmlns="http://www.w3.org/2000/svg">
<path opacity="0.6" d="M6.00105 0H3.0003C2.20457 0 1.44143 0.316102 0.878768 0.878768C0.316102 1.44143 0 2.20457 0 3.0003C0 3.79603 0.316102 4.55917 0.878768 5.12183C1.44143 5.6845 2.20457 6.0006 3.0003 6.0006H6.00105V0Z" fill="white"/>
<path opacity="0.4" d="M6.00105 5.99951H3.0003C2.20457 5.99951 1.44143 6.31561 0.878768 6.87828C0.316102 7.44094 0 8.20408 0 8.99981C0 9.79554 0.316102 10.5587 0.878768 11.1213C1.44143 11.684 2.20457 12.0001 3.0003 12.0001H6.00105V5.99951Z" fill="white"/>
<path d="M12.0004 9.0003C12.0004 9.79603 11.6843 10.5592 11.1216 11.1218C10.5589 11.6845 9.79578 12.0006 9.00006 12.0006C8.20433 12.0006 7.44119 11.6845 6.87852 11.1218C6.31586 10.5592 5.99976 9.79603 5.99976 9.0003C5.99976 8.20457 6.31586 7.44143 6.87852 6.87877C7.44119 6.3161 8.20433 6 9.00006 6C9.79578 6 10.5589 6.3161 11.1216 6.87877C11.6843 7.44143 12.0004 8.20457 12.0004 9.0003Z" fill="white"/>
<path opacity="0.2" d="M3.00017 12.0014H6.00092V15.0012C6.00074 15.5945 5.82468 16.1743 5.49498 16.6675C5.16529 17.1607 4.69676 17.5451 4.14865 17.772C3.60054 17.9989 2.99744 18.0583 2.41561 17.9425C1.83378 17.8267 1.29934 17.541 0.879858 17.1216C0.460375 16.7021 0.174686 16.1676 0.0589072 15.5858C-0.0568714 15.004 0.00245997 14.4009 0.2294 13.8528C0.45634 13.3046 0.840698 12.8361 1.33388 12.5064C1.82707 12.1767 2.40693 12.0016 3.00017 12.0014Z" fill="white"/>
<path opacity="0.8" d="M5.99976 0H8.9996C9.79533 0 10.5585 0.316102 11.1211 0.878768C11.6838 1.44143 11.9999 2.20457 11.9999 3.0003C11.9999 3.79603 11.6838 4.55917 11.1211 5.12183C10.5585 5.6845 9.79533 6.0006 8.9996 6.0006H5.99976V0Z" fill="white"/>
</svg>
