<svg width="23" height="29" viewBox="0 0 23 29" fill="none" xmlns="http://www.w3.org/2000/svg">
<path d="M11.4022 10.1229L9.02428 12.2745C9.33644 13.3603 9.77562 14.4047 10.3326 15.3858C10.9122 16.3602 11.6096 17.2583 12.4086 18.0594L15.4881 17.1025C17.2133 16.566 19.0967 17.117 20.2439 18.4943L21.9979 20.5995C22.708 21.4447 23.064 22.5354 22.9905 23.6406C22.917 24.7459 22.4197 25.7789 21.604 26.5208C18.743 29.1537 14.3379 30.0439 11.0399 27.4313C8.14134 25.1296 5.68881 22.3083 3.80551 19.1091C1.91807 15.9249 0.654932 12.4046 0.0847956 8.7397C-0.547783 4.6163 2.44546 1.31642 6.17768 0.191334C8.4032 -0.4814 10.7782 0.672687 11.5948 2.82428L12.5581 5.36153C13.1907 7.03177 12.7364 8.91658 11.4022 10.1229Z" fill="#f94866"/>
</svg>
