<svg width="187" height="186" viewBox="0 0 187 186" fill="none" xmlns="http://www.w3.org/2000/svg">
<path d="M61.8578 4.00442L78.0664 9.6492C88.1241 13.1519 99.0732 13.1348 109.12 9.60079L125.883 3.70413C160.983 -8.64244 195.05 24.5194 183.652 59.9386L177.628 78.661C174.587 88.1124 174.617 98.2841 177.713 107.717L183.571 125.56C195.098 160.673 161.727 193.941 126.65 182.308L108.323 176.23C98.7624 173.059 88.4357 173.043 78.8653 176.186L61.0988 182.02C25.6881 193.647 -7.69848 159.652 4.5664 124.457L10.1214 108.517C13.579 98.5947 13.6123 87.8004 10.2159 77.8574L4.47383 61.0472C-7.65248 25.5469 26.4306 -8.33343 61.8578 4.00442Z" fill="#FF5C7A" stroke="#FF5C7A" stroke-width="2"/>
</svg>
