<svg width="219" height="219" viewBox="0 0 219 219" fill="none" xmlns="http://www.w3.org/2000/svg">
<mask id="path-1-inside-1_308_22" fill="white">
<path fill-rule="evenodd" clip-rule="evenodd" d="M11.0037 151.659C0.481224 145.584 -3.12401 132.129 2.95112 121.607C7.37162 113.95 7.3716 104.517 2.95111 96.8603C-3.12402 86.3378 0.481245 72.8829 11.0037 66.8077C17.8088 62.8788 22.0009 55.6178 22.0009 47.7599V44.0005C22.0009 31.8502 31.8507 22.0005 44.0009 22.0005H47.7606C55.6182 22.0005 62.8789 17.8085 66.8077 11.0037C72.8829 0.481219 86.3378 -3.12401 96.8603 2.95112C104.517 7.37162 113.95 7.37162 121.607 2.95112C132.129 -3.12401 145.584 0.481256 151.659 11.0037C155.588 17.8085 162.849 22.0005 170.706 22.0005H171.714C183.864 22.0005 193.714 31.8502 193.714 44.0005C193.714 53.2016 198.623 61.7038 206.591 66.3043L207.463 66.8077C217.986 72.8829 221.591 86.3378 215.516 96.8603C211.095 104.517 211.095 113.95 215.516 121.607C221.591 132.129 217.986 145.584 207.463 151.659L204.207 153.539C197.714 157.288 193.714 164.216 193.714 171.714C193.714 183.864 183.864 193.714 171.714 193.714C164.216 193.714 157.288 197.714 153.539 204.207L151.659 207.463C145.584 217.986 132.129 221.591 121.607 215.516C113.95 211.095 104.517 211.095 96.8602 215.516C86.3378 221.591 72.8828 217.986 66.8077 207.463L66.3037 206.59C61.7034 198.622 53.2016 193.714 44.0009 193.714C31.8506 193.714 22.0009 183.864 22.0009 171.714V170.707C22.0009 162.849 17.8088 155.588 11.0037 151.659Z"/>
</mask>
<path fill-rule="evenodd" clip-rule="evenodd" d="M11.0037 151.659C0.481224 145.584 -3.12401 132.129 2.95112 121.607C7.37162 113.95 7.3716 104.517 2.95111 96.8603C-3.12402 86.3378 0.481245 72.8829 11.0037 66.8077C17.8088 62.8788 22.0009 55.6178 22.0009 47.7599V44.0005C22.0009 31.8502 31.8507 22.0005 44.0009 22.0005H47.7606C55.6182 22.0005 62.8789 17.8085 66.8077 11.0037C72.8829 0.481219 86.3378 -3.12401 96.8603 2.95112C104.517 7.37162 113.95 7.37162 121.607 2.95112C132.129 -3.12401 145.584 0.481256 151.659 11.0037C155.588 17.8085 162.849 22.0005 170.706 22.0005H171.714C183.864 22.0005 193.714 31.8502 193.714 44.0005C193.714 53.2016 198.623 61.7038 206.591 66.3043L207.463 66.8077C217.986 72.8829 221.591 86.3378 215.516 96.8603C211.095 104.517 211.095 113.95 215.516 121.607C221.591 132.129 217.986 145.584 207.463 151.659L204.207 153.539C197.714 157.288 193.714 164.216 193.714 171.714C193.714 183.864 183.864 193.714 171.714 193.714C164.216 193.714 157.288 197.714 153.539 204.207L151.659 207.463C145.584 217.986 132.129 221.591 121.607 215.516C113.95 211.095 104.517 211.095 96.8602 215.516C86.3378 221.591 72.8828 217.986 66.8077 207.463L66.3037 206.59C61.7034 198.622 53.2016 193.714 44.0009 193.714C31.8506 193.714 22.0009 183.864 22.0009 171.714V170.707C22.0009 162.849 17.8088 155.588 11.0037 151.659Z" fill="white"/>
<path d="M207.463 66.8077L206.463 68.5398L207.463 66.8077ZM207.463 151.659L208.463 153.391L207.463 151.659ZM151.659 207.463L153.391 208.463L151.659 207.463ZM66.8077 207.463L65.0757 208.463L66.8077 207.463ZM11.0037 151.659L10.0037 153.391L11.0037 151.659ZM66.3037 206.59L64.5717 207.59L66.3037 206.59ZM96.8602 215.516L95.8602 213.784L96.8602 215.516ZM153.539 204.207L155.271 205.207L153.539 204.207ZM204.207 153.539L205.207 155.271L204.207 153.539ZM215.516 96.8603L213.784 95.8603L215.516 96.8603ZM215.516 121.607L213.784 122.607L215.516 121.607ZM206.591 66.3043L205.591 68.0364L206.591 66.3043ZM151.659 11.0037L149.927 12.0037V12.0037L151.659 11.0037ZM121.607 2.95112L120.607 1.21907L121.607 2.95112ZM66.8077 11.0037L65.0757 10.0037L66.8077 11.0037ZM11.0037 66.8077L10.0037 65.0757L11.0037 66.8077ZM2.95111 96.8603L4.68316 95.8603L2.95111 96.8603ZM1.21907 120.607C-5.40834 132.086 -1.47536 146.764 10.0037 153.391L12.0037 149.927C2.43781 144.404 -0.839673 132.172 4.68318 122.607L1.21907 120.607ZM4.68316 95.8603C-0.839684 86.2944 2.43783 74.0626 12.0037 68.5398L10.0037 65.0757C-1.47534 71.7031 -5.40836 86.3812 1.21906 97.8603L4.68316 95.8603ZM20.0009 44.0005V47.7599H24.0009V44.0005H20.0009ZM44.0009 20.0005C30.7461 20.0005 20.0009 30.7456 20.0009 44.0005H24.0009C24.0009 32.9548 32.9552 24.0005 44.0009 24.0005V20.0005ZM47.7606 20.0005H44.0009V24.0005H47.7606V20.0005ZM97.8603 1.21907C86.3812 -5.40835 71.7031 -1.47537 65.0757 10.0037L68.5398 12.0037C74.0626 2.43781 86.2944 -0.839678 95.8603 4.68317L97.8603 1.21907ZM122.607 4.68317C132.172 -0.839673 144.404 2.43784 149.927 12.0037L153.391 10.0037C146.764 -1.47533 132.086 -5.40835 120.607 1.21907L122.607 4.68317ZM171.714 20.0005H170.706V24.0005H171.714V20.0005ZM195.714 44.0005C195.714 30.7457 184.969 20.0005 171.714 20.0005V24.0005C182.76 24.0005 191.714 32.9548 191.714 44.0005H195.714ZM208.463 65.0757L207.591 64.5723L205.591 68.0364L206.463 68.5398L208.463 65.0757ZM217.248 97.8603C223.875 86.3812 219.942 71.7031 208.463 65.0757L206.463 68.5398C216.029 74.0626 219.306 86.2944 213.784 95.8603L217.248 97.8603ZM213.784 122.607C219.306 132.172 216.029 144.404 206.463 149.927L208.463 153.391C219.942 146.764 223.875 132.086 217.248 120.607L213.784 122.607ZM206.463 149.927L203.207 151.807L205.207 155.271L208.463 153.391L206.463 149.927ZM171.714 195.714C184.969 195.714 195.714 184.969 195.714 171.714H191.714C191.714 182.759 182.76 191.714 171.714 191.714V195.714ZM153.391 208.463L155.271 205.207L151.807 203.207L149.927 206.463L153.391 208.463ZM120.607 217.248C132.086 223.875 146.764 219.942 153.391 208.463L149.927 206.463C144.404 216.029 132.172 219.306 122.607 213.784L120.607 217.248ZM95.8602 213.784C86.2944 219.306 74.0626 216.029 68.5398 206.463L65.0757 208.463C71.7031 219.942 86.3812 223.875 97.8602 217.248L95.8602 213.784ZM68.5398 206.463L68.0358 205.59L64.5717 207.59L65.0757 208.463L68.5398 206.463ZM20.0009 171.714C20.0009 184.969 30.7461 195.714 44.0009 195.714V191.714C32.9552 191.714 24.0009 182.759 24.0009 171.714H20.0009ZM20.0009 170.707V171.714H24.0009V170.707H20.0009ZM24.0009 170.707C24.0009 162.134 19.4276 154.213 12.0037 149.927L10.0037 153.391C16.19 156.963 20.0009 163.564 20.0009 170.707H24.0009ZM68.0358 205.59C63.0782 197.003 53.9161 191.714 44.0009 191.714V195.714C52.4871 195.714 60.3286 200.241 64.5717 207.59L68.0358 205.59ZM122.607 213.784C114.331 209.006 104.136 209.006 95.8602 213.784L97.8602 217.248C104.898 213.185 113.569 213.185 120.607 217.248L122.607 213.784ZM171.714 191.714C163.502 191.714 155.913 196.095 151.807 203.207L155.271 205.207C158.663 199.333 164.931 195.714 171.714 195.714V191.714ZM203.207 151.807C196.095 155.913 191.714 163.501 191.714 171.714H195.714C195.714 164.93 199.333 158.662 205.207 155.271L203.207 151.807ZM213.784 95.8603C209.006 104.136 209.006 114.331 213.784 122.607L217.248 120.607C213.185 113.569 213.184 104.898 217.248 97.8603L213.784 95.8603ZM191.714 44.0005C191.714 53.9161 197.004 63.0785 205.591 68.0364L207.591 64.5723C200.242 60.329 195.714 52.4871 195.714 44.0005H191.714ZM149.927 12.0037C154.213 19.4273 162.134 24.0005 170.706 24.0005V20.0005C163.563 20.0005 156.963 16.1897 153.391 10.0037L149.927 12.0037ZM95.8603 4.68317C104.136 9.46093 114.331 9.46094 122.607 4.68317L120.607 1.21907C113.569 5.2823 104.898 5.2823 97.8603 1.21907L95.8603 4.68317ZM47.7606 24.0005C56.3327 24.0005 64.2537 19.4273 68.5398 12.0037L65.0757 10.0037C61.5041 16.1897 54.9037 20.0005 47.7606 20.0005V24.0005ZM12.0037 68.5398C19.4276 64.2536 24.0009 56.3323 24.0009 47.7599H20.0009C20.0009 54.9033 16.19 61.504 10.0037 65.0757L12.0037 68.5398ZM4.68318 122.607C9.46094 114.331 9.46092 104.136 4.68316 95.8603L1.21906 97.8603C5.28229 104.898 5.2823 113.569 1.21907 120.607L4.68318 122.607Z" fill="#F94866" mask="url(#path-1-inside-1_308_22)"/>
</svg>
